<svg width="290" height="183" viewBox="0 0 290 183" fill="none" xmlns="http://www.w3.org/2000/svg">
<g clip-path="url(#clip0_1_1291)">
<path d="M87.2078 130.741C87.2078 122.802 77.2047 125.761 77.2047 119.724C77.2047 118.003 78.1387 116.856 79.6151 116.856C82.4171 116.856 81.7844 121.836 84.6166 121.836C85.9122 121.836 86.6655 120.961 86.6655 119.663C86.6655 117.731 84.3756 115.769 80.4888 115.437V113.656C80.4888 113.294 80.2779 113.052 79.9766 113.052H79.2234C78.9221 113.052 78.7112 113.294 78.7112 113.656V115.437C74.9148 115.709 72.3236 118.154 72.3236 121.444C72.3236 129.021 82.4473 127.119 82.4473 132.281C82.4473 134.213 81.3023 135.39 79.7657 135.39C76.9938 135.39 77.1143 130.288 73.9808 130.288C72.9564 130.288 72.0223 131.013 72.0223 132.492C72.0223 134.303 74.3423 136.627 78.5003 136.959V139.827C78.5003 140.22 78.681 140.461 78.9823 140.461H79.7657C80.067 140.461 80.2478 140.22 80.2478 139.827V136.959C84.5262 136.688 87.2078 134.122 87.2078 130.741Z" fill="#163A24"/>
<path d="M96.9212 115.045C92.5222 115.045 89.2681 117.852 89.2681 121.927C89.2681 126.877 92.6427 128.99 96.2282 128.99C98.1565 128.99 99.6329 128.387 100.567 127.3C100.416 131.949 99.3919 135.269 96.9815 135.269C94.1492 135.269 94.9326 130.137 91.799 130.137C90.5938 130.137 89.5996 130.922 89.5996 132.281C89.5996 134.726 92.5824 137.08 96.6802 137.08C102.495 137.08 105.237 132.311 105.237 125.64C105.237 119.301 101.863 115.045 96.9212 115.045ZM97.4937 127.179C95.0532 127.179 93.637 123.497 93.637 120.418C93.637 118.154 94.6916 116.856 96.2885 116.856C98.8495 116.856 100.175 120.206 100.507 123.98C100.446 125.881 99.3617 127.179 97.4937 127.179Z" fill="#163A24"/>
<path d="M116.431 122.833C114.684 122.833 113.117 123.436 112.032 124.523C112.303 119.422 113.84 116.856 115.889 116.856C118.631 116.856 117.787 121.987 121.101 121.987C122.276 121.987 123.271 121.353 123.271 119.844C123.271 117.58 120.77 115.045 116.19 115.045C110.375 115.045 107.392 120.327 107.392 126.485C107.392 132.824 110.978 137.08 115.708 137.08C119.956 137.08 123.391 134.303 123.391 130.168C123.391 125.127 120.017 122.833 116.431 122.833ZM116.25 135.269C113.84 135.269 112.394 132.039 112.062 127.843C112.153 126.093 113.358 124.614 115.166 124.614C117.606 124.614 118.992 128.357 118.992 131.617C118.992 133.911 117.908 135.269 116.25 135.269Z" fill="#163A24"/>
<path d="M133.377 115.045C128.978 115.045 125.724 117.852 125.724 121.927C125.724 126.877 129.099 128.99 132.684 128.99C134.613 128.99 136.089 128.387 137.023 127.3C136.872 131.949 135.848 135.269 133.438 135.269C130.605 135.269 131.389 130.137 128.255 130.137C127.05 130.137 126.056 130.922 126.056 132.281C126.056 134.726 129.039 137.08 133.136 137.08C138.951 137.08 141.693 132.311 141.693 125.64C141.693 119.301 138.319 115.045 133.377 115.045ZM133.95 127.179C131.509 127.179 130.093 123.497 130.093 120.418C130.093 118.154 131.148 116.856 132.745 116.856C135.306 116.856 136.631 120.206 136.963 123.98C136.903 125.881 135.818 127.179 133.95 127.179Z" fill="#163A24"/>
<path d="M160.12 137.08C165.032 137.08 168.406 134.062 168.406 128.658V118.244C168.406 116.977 169.702 116.705 169.702 115.95V115.83C169.702 115.528 169.431 115.347 169.009 115.347H165.574C165.182 115.347 164.881 115.528 164.881 115.83V115.95C164.881 116.705 166.086 116.977 166.086 118.244V128.598C166.086 133.488 163.375 135.118 161.115 135.118C157.77 135.118 155.752 132.854 155.752 128.598V118.244C155.752 116.977 157.047 116.705 157.047 115.95V115.83C157.047 115.528 156.776 115.347 156.354 115.347H150.69C150.268 115.347 149.997 115.528 149.997 115.83V115.95C149.997 116.705 151.172 116.977 151.172 118.244V128.598C151.172 134.062 154.848 137.08 160.12 137.08Z" fill="#163A24"/>
<path d="M180.45 137.08C184.819 137.08 188.585 134.847 188.585 130.922C188.585 122.229 176.412 126.395 176.412 119.905C176.412 118.184 177.527 116.796 179.817 116.796C184.216 116.796 183.101 122.169 186.355 122.169C187.651 122.169 188.283 121.444 188.283 120.297C188.314 117.792 184.969 115.075 179.907 115.075C174.936 115.075 171.923 117.731 171.923 121.354C171.953 130.288 184.126 125.881 184.126 132.311C184.126 134.152 182.74 135.36 180.63 135.36C175.538 135.36 176.352 129.866 173.339 129.806C172.104 129.806 171.531 130.59 171.531 131.647C171.531 134.062 174.725 137.08 180.45 137.08Z" fill="#163A24"/>
<path d="M191.569 136.778H199.854C206.724 136.778 211.454 132.552 211.454 126.093C211.454 119.905 206.423 115.347 198.438 115.347H191.569C191.147 115.347 190.876 115.528 190.876 115.83V115.95C190.876 116.705 192.051 116.977 192.051 118.244V133.88C192.051 135.148 190.876 135.42 190.876 136.175V136.265C190.876 136.597 191.147 136.778 191.569 136.778ZM198.77 134.937C197.384 134.937 196.54 134.001 196.54 132.341V118.456C196.54 117.49 197.082 117.188 197.745 117.188H198.318C203.108 117.188 206.724 122.078 206.724 128.024C206.724 132.462 203.982 134.937 200.306 134.937H198.77Z" fill="#163A24"/>
<path d="M49.2638 51.8814H47.569V39.9015H43.3696V38.4111H53.4443V39.9015H49.2638V51.8814Z" fill="#163A24"/>
<path d="M57.5605 41.5995C58.7908 41.5995 59.701 41.8699 60.291 42.4107C60.8811 42.9515 61.1761 43.8131 61.1761 44.9954V51.8814H59.9709L59.6508 50.4476H59.5754C59.1361 51.0011 58.6715 51.4098 58.1819 51.6739C57.7049 51.938 57.0395 52.0701 56.1858 52.0701C55.2694 52.0701 54.5098 51.8312 53.9073 51.3532C53.3047 50.8627 53.0034 50.1017 53.0034 49.0704C53.0034 48.0642 53.3988 47.2907 54.1897 46.7499C54.9806 46.1965 56.1984 45.8946 57.843 45.8443L59.5566 45.7877V45.184C59.5566 44.3414 59.3746 43.7565 59.0105 43.4295C58.6465 43.1024 58.1317 42.939 57.4663 42.939C56.9391 42.939 56.4369 43.0208 55.9598 43.1842C55.4829 43.3352 55.0371 43.5113 54.6228 43.7125L54.1144 42.4673C54.5538 42.2284 55.0748 42.0271 55.6774 41.8636C56.28 41.6875 56.9077 41.5995 57.5605 41.5995ZM58.0501 46.9952C56.7947 47.0454 55.9222 47.2467 55.4326 47.5989C54.9556 47.951 54.717 48.4478 54.717 49.0893C54.717 49.6553 54.8865 50.0703 55.2254 50.3344C55.577 50.5986 56.0226 50.7306 56.5624 50.7306C57.4162 50.7306 58.1254 50.4979 58.6904 50.0326C59.2553 49.5546 59.5378 48.8252 59.5378 47.8441V46.9386L58.0501 46.9952Z" fill="#163A24"/>
<path d="M65.9319 45.0331C65.9319 45.2343 65.9193 45.4985 65.8942 45.8255C65.8816 46.1525 65.8691 46.4355 65.8566 46.6745H65.9319C66.0072 46.5738 66.1202 46.4292 66.2709 46.2406C66.4215 46.0519 66.5721 45.8632 66.7228 45.6746C66.886 45.4734 67.0241 45.3098 67.1371 45.1841L70.3572 41.7693H72.2968L68.2105 46.0896L72.5793 51.8815H70.5832L67.0806 47.165L65.9319 48.1649V51.8815H64.2936V37.5433H65.9319V45.0331Z" fill="#163A24"/>
<path d="M78.2509 41.5806C79.1171 41.5806 79.8577 41.7692 80.4729 42.1465C81.1006 42.5239 81.5777 43.0584 81.9041 43.7502C82.2431 44.4293 82.4126 45.228 82.4126 46.1461V47.146H75.5015C75.5266 48.2905 75.8153 49.1647 76.3677 49.7684C76.9327 50.3596 77.7173 50.6551 78.7216 50.6551C79.3619 50.6551 79.9268 50.5985 80.4164 50.4853C80.9186 50.3596 81.4333 50.1835 81.9606 49.9571V51.4097C81.4459 51.6361 80.9374 51.7996 80.4353 51.9003C79.9331 52.0135 79.3368 52.0701 78.6463 52.0701C77.6921 52.0701 76.8447 51.8751 76.1041 51.4852C75.3759 51.0953 74.8048 50.5167 74.3905 49.7495C73.9887 48.9697 73.7879 48.0202 73.7879 46.9008C73.7879 45.794 73.9699 44.8444 74.334 44.052C74.7106 43.2596 75.2316 42.6496 75.897 42.222C76.5749 41.7944 77.3595 41.5806 78.2509 41.5806ZM78.232 42.9389C77.4411 42.9389 76.8134 43.1967 76.3489 43.7124C75.897 44.2155 75.627 44.9198 75.5392 45.8254H80.6801C80.6675 44.9701 80.4666 44.2784 80.0775 43.7502C79.6882 43.2094 79.0731 42.9389 78.232 42.9389Z" fill="#163A24"/>
<path d="M93.6966 41.5995C94.927 41.5995 95.8365 41.8699 96.4269 42.4107C97.0172 42.9515 97.3119 43.8131 97.3119 44.9954V51.8814H96.1068L95.7866 50.4476H95.7113C95.2716 51.0011 94.8074 51.4098 94.3178 51.6739C93.8409 51.938 93.1755 52.0701 92.3219 52.0701C91.4054 52.0701 90.6458 51.8312 90.0432 51.3532C89.4406 50.8627 89.1393 50.1017 89.1393 49.0704C89.1393 48.0642 89.5349 47.2907 90.3258 46.7499C91.1167 46.1965 92.3344 45.8946 93.9789 45.8443L95.6925 45.7877V45.184C95.6925 44.3414 95.5107 43.7565 95.1464 43.4295C94.782 43.1024 94.2679 42.939 93.6024 42.939C93.0751 42.939 92.5729 43.0208 92.0958 43.1842C91.6188 43.3352 91.1732 43.5113 90.7589 43.7125L90.2504 42.4673C90.6898 42.2284 91.2108 42.0271 91.8134 41.8636C92.416 41.6875 93.0437 41.5995 93.6966 41.5995ZM94.186 46.9952C92.9307 47.0454 92.0582 47.2467 91.5686 47.5989C91.0915 47.951 90.853 48.4478 90.853 49.0893C90.853 49.6553 91.0225 50.0703 91.3615 50.3344C91.713 50.5986 92.1586 50.7306 92.6984 50.7306C93.5521 50.7306 94.2613 50.4979 94.8262 50.0326C95.3912 49.5546 95.6736 48.8252 95.6736 47.8441V46.9386L94.186 46.9952Z" fill="#163A24"/>
<path d="M104.007 52.0701C102.752 52.0701 101.748 51.6362 100.994 50.7684C100.241 49.888 99.8645 48.5799 99.8645 46.8443C99.8645 45.1086 100.241 43.8005 100.994 42.9201C101.76 42.0271 102.771 41.5807 104.026 41.5807C104.805 41.5807 105.439 41.7253 105.928 42.0146C106.43 42.3039 106.839 42.656 107.152 43.0711H107.265C107.253 42.9076 107.227 42.6686 107.19 42.3542C107.164 42.0271 107.152 41.7693 107.152 41.5807V37.5433H108.809V51.8815H107.472L107.227 50.5231H107.152C106.851 50.9507 106.449 51.3155 105.947 51.6174C105.445 51.9192 104.798 52.0701 104.007 52.0701ZM104.271 50.6929C105.338 50.6929 106.085 50.4036 106.512 49.8251C106.952 49.2339 107.171 48.3472 107.171 47.165V46.8631C107.171 45.6054 106.964 44.6433 106.55 43.9766C106.135 43.2975 105.37 42.9579 104.252 42.9579C103.361 42.9579 102.689 43.3163 102.237 44.0332C101.798 44.7376 101.578 45.6871 101.578 46.882C101.578 48.0894 101.798 49.0264 102.237 49.693C102.689 50.3597 103.367 50.6929 104.271 50.6929Z" fill="#163A24"/>
<path d="M114.237 51.8815L110.415 41.7693H112.185L114.332 47.7309C114.431 48.0076 114.539 48.3158 114.652 48.6554C114.765 48.995 114.864 49.322 114.953 49.6364C115.041 49.9383 115.104 50.1961 115.141 50.4099H115.217C115.267 50.1961 115.335 49.9319 115.424 49.6175C115.524 49.3031 115.631 48.9761 115.744 48.6365C115.869 48.2969 115.976 47.9951 116.064 47.7309L118.211 41.7693H119.981L116.139 51.8815H114.237Z" fill="#163A24"/>
<path d="M125.401 41.5995C126.631 41.5995 127.541 41.8699 128.131 42.4107C128.721 42.9515 129.016 43.8131 129.016 44.9954V51.8814H127.811L127.491 50.4476H127.415C126.976 51.0011 126.512 51.4098 126.022 51.6739C125.545 51.938 124.88 52.0701 124.026 52.0701C123.11 52.0701 122.35 51.8312 121.747 51.3532C121.145 50.8627 120.843 50.1017 120.843 49.0704C120.843 48.0642 121.239 47.2907 122.03 46.7499C122.821 46.1965 124.038 45.8946 125.683 45.8443L127.397 45.7877V45.184C127.397 44.3414 127.215 43.7565 126.851 43.4295C126.486 43.1024 125.972 42.939 125.306 42.939C124.779 42.939 124.277 43.0208 123.8 43.1842C123.323 43.3352 122.877 43.5113 122.463 43.7125L121.954 42.4673C122.394 42.2284 122.915 42.0271 123.517 41.8636C124.12 41.6875 124.748 41.5995 125.401 41.5995ZM125.89 46.9952C124.635 47.0454 123.762 47.2467 123.273 47.5989C122.795 47.951 122.557 48.4478 122.557 49.0893C122.557 49.6553 122.727 50.0703 123.065 50.3344C123.417 50.5986 123.863 50.7306 124.402 50.7306C125.256 50.7306 125.965 50.4979 126.53 50.0326C127.095 49.5546 127.378 48.8252 127.378 47.8441V46.9386L125.89 46.9952Z" fill="#163A24"/>
<path d="M136.992 41.5806C138.197 41.5806 139.108 41.8761 139.723 42.4673C140.337 43.0458 140.645 43.9891 140.645 45.2972V51.8814H139.007V45.4104C139.007 43.7879 138.254 42.9766 136.747 42.9766C135.63 42.9766 134.858 43.2911 134.431 43.9199C134.004 44.5488 133.791 45.4544 133.791 46.6366V51.8814H132.134V41.7692H133.471L133.715 43.1464H133.81C134.136 42.6182 134.588 42.2283 135.165 41.9768C135.743 41.7126 136.352 41.5806 136.992 41.5806Z" fill="#163A24"/>
<path d="M147.145 50.7117C147.396 50.7117 147.653 50.6929 147.917 50.6551C148.181 50.6048 148.394 50.5545 148.557 50.5042V51.7682C148.382 51.8562 148.131 51.9255 147.804 51.9757C147.478 52.0387 147.164 52.0701 146.862 52.0701C146.335 52.0701 145.846 51.9821 145.394 51.806C144.955 51.6173 144.597 51.2966 144.32 50.8438C144.044 50.391 143.906 49.7559 143.906 48.9383V43.0521H142.475V42.2598L143.925 41.5995L144.584 39.4487H145.563V41.7692H148.482V43.0521H145.563V48.9006C145.563 49.5168 145.708 49.976 145.996 50.2778C146.297 50.5671 146.681 50.7117 147.145 50.7117Z" fill="#163A24"/>
<path d="M154.401 41.5995C155.631 41.5995 156.542 41.8699 157.132 42.4107C157.721 42.9515 158.017 43.8131 158.017 44.9954V51.8814H156.812L156.492 50.4476H156.416C155.977 51.0011 155.513 51.4098 155.023 51.6739C154.546 51.938 153.88 52.0701 153.027 52.0701C152.11 52.0701 151.351 51.8312 150.748 51.3532C150.146 50.8627 149.844 50.1017 149.844 49.0704C149.844 48.0642 150.24 47.2907 151.031 46.7499C151.822 46.1965 153.039 45.8946 154.684 45.8443L156.398 45.7877V45.184C156.398 44.3414 156.215 43.7565 155.851 43.4295C155.487 43.1024 154.972 42.939 154.307 42.939C153.78 42.939 153.277 43.0208 152.801 43.1842C152.323 43.3352 151.878 43.5113 151.464 43.7125L150.955 42.4673C151.394 42.2284 151.916 42.0271 152.518 41.8636C153.121 41.6875 153.748 41.5995 154.401 41.5995ZM154.891 46.9952C153.635 47.0454 152.763 47.2467 152.274 47.5989C151.796 47.951 151.558 48.4478 151.558 49.0893C151.558 49.6553 151.727 50.0703 152.066 50.3344C152.418 50.5986 152.863 50.7306 153.403 50.7306C154.256 50.7306 154.966 50.4979 155.531 50.0326C156.096 49.5546 156.379 48.8252 156.379 47.8441V46.9386L154.891 46.9952Z" fill="#163A24"/>
<path d="M164.712 41.5806C165.377 41.5806 165.974 41.7063 166.501 41.9579C167.041 42.2095 167.499 42.593 167.876 43.1087H167.97L168.196 41.7692H169.514V52.0512C169.514 53.4975 169.143 54.5855 168.403 55.315C167.675 56.0445 166.539 56.4092 164.995 56.4092C163.513 56.4092 162.302 56.1954 161.361 55.7678V54.2396C162.352 54.7679 163.595 55.032 165.089 55.032C165.955 55.032 166.633 54.7742 167.123 54.2585C167.625 53.7554 167.876 53.0636 167.876 52.1832V51.7871C167.876 51.6361 167.882 51.4223 167.895 51.1456C167.907 50.8563 167.919 50.6551 167.933 50.5419H167.857C167.179 51.5607 166.137 52.0701 164.731 52.0701C163.425 52.0701 162.402 51.6109 161.662 50.6928C160.933 49.7747 160.57 48.4918 160.57 46.8442C160.57 45.2342 160.933 43.9577 161.662 43.0144C162.402 42.0585 163.419 41.5806 164.712 41.5806ZM164.938 42.9766C164.097 42.9766 163.444 43.3162 162.98 43.9954C162.515 44.662 162.283 45.6179 162.283 46.863C162.283 48.1082 162.509 49.064 162.961 49.7307C163.425 50.3847 164.097 50.7117 164.976 50.7117C165.993 50.7117 166.733 50.4413 167.198 49.9005C167.662 49.347 167.895 48.4603 167.895 47.2404V46.8442C167.895 45.4606 167.656 44.4734 167.179 43.8822C166.702 43.2785 165.955 42.9766 164.938 42.9766Z" fill="#163A24"/>
<path d="M176.618 41.5806C177.484 41.5806 178.225 41.7692 178.84 42.1465C179.468 42.5239 179.945 43.0584 180.271 43.7502C180.61 44.4293 180.779 45.228 180.779 46.1461V47.146H173.868C173.894 48.2905 174.183 49.1647 174.734 49.7684C175.299 50.3596 176.085 50.6551 177.088 50.6551C177.729 50.6551 178.294 50.5985 178.783 50.4853C179.286 50.3596 179.8 50.1835 180.327 49.9571V51.4097C179.813 51.6361 179.305 51.7996 178.802 51.9003C178.3 52.0135 177.704 52.0701 177.013 52.0701C176.059 52.0701 175.212 51.8751 174.471 51.4852C173.743 51.0953 173.171 50.5167 172.757 49.7495C172.356 48.9697 172.155 48.0202 172.155 46.9008C172.155 45.794 172.337 44.8444 172.701 44.052C173.077 43.2596 173.599 42.6496 174.264 42.222C174.942 41.7944 175.727 41.5806 176.618 41.5806ZM176.599 42.9389C175.808 42.9389 175.181 43.1967 174.716 43.7124C174.264 44.2155 173.994 44.9198 173.906 45.8254H179.047C179.035 44.9701 178.834 44.2784 178.444 43.7502C178.055 43.2094 177.44 42.9389 176.599 42.9389Z" fill="#163A24"/>
<path d="M197.016 46.8064C197.016 48.4792 196.589 49.7747 195.736 50.6928C194.894 51.6109 193.752 52.0701 192.309 52.0701C191.417 52.0701 190.619 51.8688 189.917 51.4663C189.226 51.0513 188.68 50.4539 188.279 49.6741C187.877 48.8817 187.676 47.9259 187.676 46.8064C187.676 45.1337 188.096 43.8445 188.938 42.9389C189.779 42.0333 190.921 41.5806 192.365 41.5806C193.281 41.5806 194.084 41.7881 194.776 42.2031C195.478 42.6056 196.024 43.1967 196.414 43.9765C196.815 44.7437 197.016 45.687 197.016 46.8064ZM189.39 46.8064C189.39 48.0013 189.621 48.9508 190.087 49.6552C190.563 50.3469 191.316 50.6928 192.346 50.6928C193.363 50.6928 194.11 50.3469 194.587 49.6552C195.064 48.9508 195.303 48.0013 195.303 46.8064C195.303 45.6116 195.064 44.6746 194.587 43.9954C194.11 43.3162 193.357 42.9766 192.327 42.9766C191.297 42.9766 190.551 43.3162 190.087 43.9954C189.621 44.6746 189.39 45.6116 189.39 46.8064Z" fill="#163A24"/>
<path d="M204.294 43.0522H201.751V51.8814H200.094V43.0522H198.324V42.2787L200.094 41.7127V41.1278C200.094 39.8198 200.383 38.8828 200.961 38.3168C201.539 37.7383 202.342 37.449 203.371 37.449C203.773 37.449 204.137 37.4867 204.463 37.5622C204.802 37.6251 205.091 37.7006 205.329 37.7886L204.896 39.0903C204.696 39.0274 204.463 38.9646 204.2 38.9017C203.936 38.8387 203.667 38.8073 203.39 38.8073C202.838 38.8073 202.424 38.996 202.147 39.3733C201.883 39.7381 201.751 40.3166 201.751 41.109V41.7693H204.294V43.0522Z" fill="#163A24"/>
<path d="M219.782 46.8064C219.782 48.4792 219.356 49.7747 218.502 50.6928C217.661 51.6109 216.519 52.0701 215.075 52.0701C214.184 52.0701 213.386 51.8688 212.683 51.4663C211.993 51.0513 211.447 50.4539 211.046 49.6741C210.644 48.8817 210.443 47.9259 210.443 46.8064C210.443 45.1337 210.863 43.8445 211.704 42.9389C212.546 42.0333 213.688 41.5806 215.131 41.5806C216.048 41.5806 216.851 41.7881 217.541 42.2031C218.245 42.6056 218.791 43.1967 219.181 43.9765C219.582 44.7437 219.782 45.687 219.782 46.8064ZM212.156 46.8064C212.156 48.0013 212.388 48.9508 212.852 49.6552C213.33 50.3469 214.083 50.6928 215.112 50.6928C216.129 50.6928 216.877 50.3469 217.353 49.6552C217.83 48.9508 218.069 48.0013 218.069 46.8064C218.069 45.6116 217.83 44.6746 217.353 43.9954C216.877 43.3162 216.123 42.9766 215.093 42.9766C214.064 42.9766 213.318 43.3162 212.852 43.9954C212.388 44.6746 212.156 45.6116 212.156 46.8064Z" fill="#163A24"/>
<path d="M230.846 41.7693V51.8815H229.49L229.245 50.542H229.17C228.843 51.0702 228.391 51.4601 227.814 51.7117C227.237 51.9506 226.621 52.0701 225.968 52.0701C224.751 52.0701 223.834 51.7808 223.219 51.2023C222.604 50.6111 222.296 49.6741 222.296 48.3912V41.7693H223.972V48.2781C223.972 49.888 224.719 50.6929 226.213 50.6929C227.331 50.6929 228.103 50.3785 228.529 49.7496C228.969 49.1207 229.188 48.2151 229.188 47.0329V41.7693H230.846Z" fill="#163A24"/>
<path d="M238.758 41.5806C238.946 41.5806 239.146 41.5931 239.36 41.6183C239.586 41.6308 239.781 41.656 239.944 41.6938L239.737 43.2219C239.574 43.1842 239.391 43.1528 239.191 43.1276C239.002 43.1024 238.821 43.0898 238.645 43.0898C238.13 43.0898 237.647 43.2345 237.195 43.5238C236.743 43.8004 236.378 44.1966 236.102 44.7123C235.839 45.2154 235.707 45.8065 235.707 46.4857V51.8814H234.05V41.7692H235.406L235.594 43.6181H235.669C235.996 43.0647 236.416 42.5868 236.931 42.1843C237.446 41.7818 238.054 41.5806 238.758 41.5806Z" fill="#163A24"/>
<path d="M40.7291 69.8796C41.8715 69.8796 42.7252 70.1752 43.2901 70.7663C43.8551 71.3449 44.1375 72.2882 44.1375 73.5962V80.1805H42.4992V73.6717C42.4992 72.0744 41.815 71.2757 40.4466 71.2757C39.4674 71.2757 38.7643 71.5587 38.3375 72.1247C37.9233 72.6907 37.7161 73.5145 37.7161 74.5961V80.1805H36.0778V73.6717C36.0778 72.0744 35.3873 71.2757 34.0064 71.2757C32.9895 71.2757 32.2864 71.5901 31.8973 72.219C31.508 72.8479 31.3135 73.7535 31.3135 74.9357V80.1805H29.6564V70.0683H30.9934L31.2382 71.4455H31.3323C31.6462 70.9173 32.0668 70.5274 32.594 70.2758C33.1338 70.0117 33.7051 69.8796 34.3077 69.8796C35.8895 69.8796 36.9189 70.4456 37.396 71.5776H37.4901C37.8291 70.999 38.2873 70.5714 38.8648 70.2947C39.4548 70.018 40.0762 69.8796 40.7291 69.8796Z" fill="#163A24"/>
<path d="M56.0307 75.1055C56.0307 76.7783 55.6038 78.0738 54.7502 78.9919C53.909 79.91 52.7666 80.3691 51.3229 80.3691C50.4316 80.3691 49.6343 80.1679 48.9314 79.7654C48.2408 79.3504 47.6947 78.753 47.2931 77.9732C46.8913 77.1808 46.6905 76.2249 46.6905 75.1055C46.6905 73.4328 47.111 72.1436 47.9521 71.238C48.7932 70.3324 49.9356 69.8796 51.3794 69.8796C52.2958 69.8796 53.0993 70.0872 53.7898 70.5022C54.4928 70.9047 55.0389 71.4958 55.4281 72.2756C55.8298 73.0428 56.0307 73.9861 56.0307 75.1055ZM48.4041 75.1055C48.4041 76.3004 48.6363 77.2499 49.1008 77.9543C49.5778 78.646 50.3311 78.9919 51.3606 78.9919C52.3775 78.9919 53.1244 78.646 53.6015 77.9543C54.0785 77.2499 54.3171 76.3004 54.3171 75.1055C54.3171 73.9106 54.0785 72.9737 53.6015 72.2945C53.1244 71.6153 52.3712 71.2757 51.3418 71.2757C50.3123 71.2757 49.5653 71.6153 49.1008 72.2945C48.6363 72.9737 48.4041 73.9106 48.4041 75.1055Z" fill="#163A24"/>
<path d="M63.5155 69.8796C64.7207 69.8796 65.6309 70.1752 66.2461 70.7663C66.8612 71.3449 67.1688 72.2882 67.1688 73.5962V80.1805H65.5305V73.7094C65.5305 72.087 64.7771 71.2757 63.2706 71.2757C62.1534 71.2757 61.3813 71.5901 60.9545 72.219C60.5276 72.8479 60.3142 73.7535 60.3142 74.9357V80.1805H58.6571V70.0683H59.994L60.2389 71.4455H60.3331C60.6594 70.9173 61.1114 70.5274 61.6889 70.2758C62.2664 70.0117 62.8753 69.8796 63.5155 69.8796Z" fill="#163A24"/>
<path d="M73.6686 79.0107C73.9197 79.0107 74.177 78.9918 74.4406 78.9541C74.7043 78.9038 74.9177 78.8534 75.0809 78.8031V80.0672C74.9052 80.1552 74.6541 80.2244 74.3277 80.2747C74.0013 80.3376 73.6874 80.369 73.3861 80.369C72.8588 80.369 72.3692 80.281 71.9173 80.1049C71.4779 79.9162 71.1202 79.5955 70.8439 79.1427C70.5677 78.69 70.4296 78.0548 70.4296 77.2373V71.3511H68.9984V70.5587L70.4484 69.8984L71.1075 67.7477H72.0868V70.0682H75.0056V71.3511H72.0868V77.1995C72.0868 77.8158 72.2312 78.2749 72.5199 78.5768C72.8212 78.8661 73.2041 79.0107 73.6686 79.0107Z" fill="#163A24"/>
<path d="M78.7592 70.0494C78.7592 70.5525 78.7278 71.0241 78.665 71.4643H78.778C79.1045 70.9486 79.5438 70.5588 80.0962 70.2947C80.6611 70.0305 81.27 69.8985 81.9228 69.8985C83.1532 69.8985 84.0759 70.194 84.691 70.7852C85.3061 71.3637 85.6137 72.3008 85.6137 73.5962V80.1804H83.9754V73.7094C83.9754 72.0869 83.2222 71.2757 81.7157 71.2757C80.5858 71.2757 79.8074 71.5964 79.3806 72.2379C78.9663 72.8667 78.7592 73.7723 78.7592 74.9546V80.1804H77.1021V65.8423H78.7592V70.0494Z" fill="#163A24"/>
<path d="M90.4 80.1804H88.7428V65.8423H90.4V80.1804Z" fill="#163A24"/>
<path d="M92.0159 70.0682H93.786L95.9702 75.8224C96.1585 76.3254 96.328 76.8097 96.4787 77.275C96.6293 77.7278 96.7423 78.1617 96.8176 78.5768H96.8929C96.9683 78.2624 97.0879 77.8536 97.2507 77.3505C97.4146 76.8348 97.5841 76.3192 97.7592 75.8035L99.8118 70.0682H101.601L97.2507 81.5765C96.8995 82.5323 96.441 83.2933 95.8761 83.8593C95.3243 84.4252 94.5579 84.7082 93.5789 84.7082C93.2776 84.7082 93.0139 84.6894 92.7879 84.6516C92.562 84.6264 92.3674 84.595 92.2042 84.5573V83.2367C92.3423 83.2619 92.5055 83.287 92.6938 83.3122C92.8947 83.3373 93.1019 83.3499 93.3152 83.3499C93.8928 83.3499 94.3573 83.1864 94.7085 82.8594C95.0729 82.5323 95.3554 82.0984 95.5559 81.5576L96.0832 80.2181L92.0159 70.0682Z" fill="#163A24"/>
<path d="M112.891 69.8796C114.134 69.8796 115.132 70.3136 115.885 71.1814C116.651 72.0492 117.034 73.3573 117.034 75.1055C117.034 76.8286 116.651 78.1366 115.885 79.0296C115.132 79.9227 114.127 80.3691 112.872 80.3691C112.093 80.3691 111.448 80.2245 110.933 79.9352C110.431 79.6333 110.035 79.2874 109.746 78.8976H109.633C109.659 79.1114 109.683 79.3818 109.709 79.7088C109.734 80.0359 109.746 80.3188 109.746 80.5578V84.7083H108.089V70.0683H109.445L109.671 71.4455H109.746C110.047 71.0053 110.443 70.6343 110.933 70.3324C111.422 70.0306 112.075 69.8796 112.891 69.8796ZM112.59 71.2757C111.561 71.2757 110.832 71.565 110.405 72.1436C109.991 72.7221 109.772 73.6026 109.746 74.7848V75.1055C109.746 76.3507 109.947 77.3128 110.349 77.992C110.763 78.6586 111.523 78.9919 112.627 78.9919C113.242 78.9919 113.745 78.8221 114.134 78.4825C114.536 78.1429 114.831 77.6838 115.019 77.1053C115.219 76.5141 115.32 75.8413 115.32 75.0866C115.32 73.9295 115.094 73.0051 114.642 72.3134C114.203 71.6216 113.519 71.2757 112.59 71.2757Z" fill="#163A24"/>
<path d="M121.332 80.1804H119.675V65.8423H121.332V80.1804Z" fill="#163A24"/>
<path d="M128.352 69.8984C129.582 69.8984 130.492 70.1689 131.083 70.7097C131.672 71.2505 131.968 72.1121 131.968 73.2943V80.1804H130.763L130.443 78.7466H130.367C129.928 79.3 129.463 79.7087 128.974 79.9729C128.496 80.237 127.831 80.3691 126.978 80.3691C126.061 80.3691 125.302 80.1301 124.699 79.6522C124.096 79.1616 123.795 78.4007 123.795 77.3694C123.795 76.3631 124.191 75.5896 124.982 75.0489C125.772 74.4954 126.99 74.1936 128.635 74.1433L130.348 74.0867V73.483C130.348 72.6403 130.166 72.0555 129.802 71.7284C129.438 71.4014 128.923 71.2379 128.258 71.2379C127.731 71.2379 127.228 71.3197 126.752 71.4832C126.274 71.6341 125.829 71.8102 125.415 72.0114L124.906 70.7663C125.345 70.5273 125.867 70.326 126.469 70.1626C127.072 69.9864 127.699 69.8984 128.352 69.8984ZM128.842 75.2941C127.586 75.3444 126.714 75.5457 126.224 75.8978C125.747 76.25 125.509 76.7468 125.509 77.3882C125.509 77.9542 125.678 78.3693 126.017 78.6334C126.368 78.8975 126.814 79.0296 127.354 79.0296C128.207 79.0296 128.917 78.7969 129.482 78.3315C130.047 77.8536 130.33 77.1241 130.33 76.1431V75.2375L128.842 75.2941Z" fill="#163A24"/>
<path d="M139.944 69.8796C141.149 69.8796 142.059 70.1752 142.674 70.7663C143.289 71.3449 143.597 72.2882 143.597 73.5962V80.1805H141.959V73.7094C141.959 72.087 141.206 71.2757 139.699 71.2757C138.581 71.2757 137.809 71.5901 137.383 72.219C136.955 72.8479 136.743 73.7535 136.743 74.9357V80.1805H135.085V70.0683H136.422L136.667 71.4455H136.761C137.087 70.9173 137.539 70.5274 138.117 70.2758C138.694 70.0117 139.304 69.8796 139.944 69.8796Z" fill="#163A24"/>
<path d="M153.298 77.3883C153.298 78.3693 152.934 79.1114 152.206 79.6145C151.478 80.1176 150.499 80.3691 149.268 80.3691C148.565 80.3691 147.957 80.3125 147.441 80.1993C146.94 80.0861 146.493 79.9289 146.104 79.7277V78.2184C146.507 78.4196 146.99 78.6083 147.554 78.7844C148.132 78.9479 148.715 79.0296 149.306 79.0296C150.147 79.0296 150.756 78.8976 151.132 78.6335C151.509 78.3568 151.697 77.992 151.697 77.5392C151.697 77.2876 151.629 77.0613 151.49 76.8601C151.352 76.6589 151.101 76.4575 150.737 76.2563C150.386 76.0551 149.877 75.8287 149.212 75.5772C148.559 75.3256 148 75.0741 147.536 74.8225C147.071 74.5709 146.714 74.2691 146.462 73.917C146.211 73.5648 146.086 73.112 146.086 72.5586C146.086 71.7033 146.431 71.043 147.121 70.5777C147.825 70.1123 148.741 69.8796 149.871 69.8796C150.486 69.8796 151.057 69.9426 151.584 70.0683C152.124 70.1815 152.627 70.345 153.091 70.5588L152.526 71.8794C152.099 71.7033 151.653 71.5524 151.189 71.4266C150.725 71.3009 150.247 71.238 149.758 71.238C149.08 71.238 148.559 71.3512 148.195 71.5776C147.844 71.7914 147.667 72.087 147.667 72.4643C147.667 72.7409 147.749 72.98 147.912 73.1812C148.075 73.3698 148.345 73.5585 148.722 73.7472C149.111 73.9233 149.626 74.137 150.266 74.3886C150.906 74.6275 151.453 74.8728 151.904 75.1244C152.356 75.376 152.702 75.684 152.94 76.0488C153.178 76.401 153.298 76.8475 153.298 77.3883Z" fill="#163A24"/>
<path d="M167.201 77.3883C167.201 78.3693 166.837 79.1114 166.109 79.6145C165.38 80.1176 164.401 80.3691 163.171 80.3691C162.468 80.3691 161.859 80.3125 161.345 80.1993C160.842 80.0861 160.396 79.9289 160.007 79.7277V78.2184C160.409 78.4196 160.893 78.6083 161.458 78.7844C162.035 78.9479 162.618 79.0296 163.209 79.0296C164.05 79.0296 164.659 78.8976 165.035 78.6335C165.412 78.3568 165.6 77.992 165.6 77.5392C165.6 77.2876 165.531 77.0613 165.393 76.8601C165.255 76.6589 165.003 76.4575 164.64 76.2563C164.288 76.0551 163.779 75.8287 163.115 75.5772C162.461 75.3256 161.903 75.0741 161.439 74.8225C160.974 74.5709 160.616 74.2691 160.365 73.917C160.114 73.5648 159.989 73.112 159.989 72.5586C159.989 71.7033 160.333 71.043 161.024 70.5777C161.727 70.1123 162.644 69.8796 163.774 69.8796C164.389 69.8796 164.96 69.9426 165.487 70.0683C166.027 70.1815 166.529 70.345 166.994 70.5588L166.429 71.8794C166.001 71.7033 165.556 71.5524 165.092 71.4266C164.627 71.3009 164.15 71.238 163.661 71.238C162.983 71.238 162.461 71.3512 162.098 71.5776C161.746 71.7914 161.57 72.087 161.57 72.4643C161.57 72.7409 161.651 72.98 161.815 73.1812C161.978 73.3698 162.248 73.5585 162.625 73.7472C163.014 73.9233 163.529 74.137 164.169 74.3886C164.809 74.6275 165.356 74.8728 165.808 75.1244C166.259 75.376 166.604 75.684 166.843 76.0488C167.081 76.401 167.201 76.8475 167.201 77.3883Z" fill="#163A24"/>
<path d="M173.01 79.0107C173.262 79.0107 173.519 78.9918 173.783 78.9541C174.046 78.9038 174.26 78.8534 174.423 78.8031V80.0672C174.247 80.1552 173.996 80.2244 173.67 80.2747C173.343 80.3376 173.029 80.369 172.728 80.369C172.201 80.369 171.711 80.281 171.259 80.1049C170.819 79.9162 170.462 79.5955 170.186 79.1427C169.91 78.69 169.771 78.0548 169.771 77.2373V71.3511H168.34V70.5587L169.79 69.8984L170.449 67.7477H171.429V70.0682H174.347V71.3511H171.429V77.1995C171.429 77.8158 171.573 78.2749 171.862 78.5768C172.163 78.8661 172.546 79.0107 173.01 79.0107Z" fill="#163A24"/>
<path d="M180.267 69.8984C181.497 69.8984 182.407 70.1689 182.998 70.7097C183.587 71.2505 183.883 72.1121 183.883 73.2943V80.1804H182.677L182.357 78.7466H182.282C181.842 79.3 181.378 79.7087 180.888 79.9729C180.411 80.237 179.745 80.3691 178.892 80.3691C177.975 80.3691 177.216 80.1301 176.614 79.6522C176.011 79.1616 175.71 78.4007 175.71 77.3694C175.71 76.3631 176.105 75.5896 176.896 75.0489C177.687 74.4954 178.905 74.1936 180.549 74.1433L182.263 74.0867V73.483C182.263 72.6403 182.08 72.0555 181.717 71.7284C181.353 71.4014 180.838 71.2379 180.173 71.2379C179.646 71.2379 179.143 71.3197 178.666 71.4832C178.189 71.6341 177.744 71.8102 177.329 72.0114L176.821 70.7663C177.26 70.5273 177.781 70.326 178.384 70.1626C178.986 69.9864 179.614 69.8984 180.267 69.8984ZM180.757 75.2941C179.501 75.3444 178.629 75.5457 178.139 75.8978C177.662 76.25 177.424 76.7468 177.424 77.3882C177.424 77.9542 177.593 78.3693 177.932 78.6334C178.283 78.8975 178.729 79.0296 179.269 79.0296C180.122 79.0296 180.832 78.7969 181.397 78.3315C181.962 77.8536 182.244 77.1241 182.244 76.1431V75.2375L180.757 75.2941Z" fill="#163A24"/>
<path d="M191.707 69.8796C191.895 69.8796 192.097 69.8922 192.31 69.9174C192.536 69.9299 192.73 69.9551 192.893 69.9928L192.686 71.521C192.523 71.4832 192.342 71.4518 192.14 71.4266C191.952 71.4015 191.77 71.3889 191.594 71.3889C191.08 71.3889 190.596 71.5335 190.144 71.8228C189.692 72.0995 189.329 72.4957 189.052 73.0114C188.788 73.5145 188.656 74.1056 188.656 74.7848V80.1805H186.999V70.0683H188.355L188.543 71.9172H188.619C188.945 71.3637 189.366 70.8859 189.88 70.4833C190.395 70.0808 191.005 69.8796 191.707 69.8796Z" fill="#163A24"/>
<path d="M198.149 79.0107C198.4 79.0107 198.658 78.9918 198.921 78.9541C199.185 78.9038 199.399 78.8534 199.561 78.8031V80.0672C199.385 80.1552 199.135 80.2244 198.808 80.2747C198.481 80.3376 198.168 80.369 197.867 80.369C197.339 80.369 196.85 80.281 196.398 80.1049C195.958 79.9162 195.6 79.5955 195.324 79.1427C195.049 78.69 194.91 78.0548 194.91 77.2373V71.3511H193.479V70.5587L194.929 69.8984L195.588 67.7477H196.567V70.0682H199.486V71.3511H196.567V77.1995C196.567 77.8158 196.711 78.2749 197 78.5768C197.302 78.8661 197.685 79.0107 198.149 79.0107Z" fill="#163A24"/>
<path d="M202.43 66.2762C202.681 66.2762 202.901 66.3643 203.089 66.5404C203.29 66.7038 203.391 66.968 203.391 67.3327C203.391 67.6849 203.29 67.949 203.089 68.1251C202.901 68.3012 202.681 68.3892 202.43 68.3892C202.154 68.3892 201.922 68.3012 201.734 68.1251C201.545 67.949 201.451 67.6849 201.451 67.3327C201.451 66.968 201.545 66.7038 201.734 66.5404C201.922 66.3643 202.154 66.2762 202.43 66.2762ZM203.24 70.0683V80.1805H201.583V70.0683H203.24Z" fill="#163A24"/>
<path d="M211.296 69.8796C212.501 69.8796 213.412 70.1752 214.027 70.7663C214.641 71.3449 214.949 72.2882 214.949 73.5962V80.1805H213.311V73.7094C213.311 72.087 212.558 71.2757 211.051 71.2757C209.934 71.2757 209.162 71.5901 208.735 72.219C208.308 72.8479 208.095 73.7535 208.095 74.9357V80.1805H206.438V70.0683H207.775L208.019 71.4455H208.114C208.44 70.9173 208.892 70.5274 209.469 70.2758C210.047 70.0117 210.656 69.8796 211.296 69.8796Z" fill="#163A24"/>
<path d="M221.656 69.8796C222.322 69.8796 222.918 70.0054 223.445 70.257C223.985 70.5085 224.443 70.8921 224.82 71.4078H224.914L225.14 70.0683H226.458V80.3503C226.458 81.7966 226.088 82.8846 225.347 83.6141C224.619 84.3435 223.483 84.7083 221.938 84.7083C220.457 84.7083 219.246 84.4945 218.304 84.0669V82.5387C219.296 83.067 220.539 83.3311 222.033 83.3311C222.899 83.3311 223.577 83.0733 224.066 82.5576C224.569 82.0545 224.82 81.3627 224.82 80.4823V80.0861C224.82 79.9352 224.826 79.7214 224.838 79.4447C224.852 79.1554 224.864 78.9542 224.876 78.841H224.801C224.123 79.8597 223.082 80.3691 221.675 80.3691C220.37 80.3691 219.346 79.91 218.605 78.9919C217.878 78.0738 217.513 76.7909 217.513 75.1432C217.513 73.5333 217.878 72.2567 218.605 71.3134C219.346 70.3576 220.363 69.8796 221.656 69.8796ZM221.882 71.2757C221.041 71.2757 220.389 71.6153 219.924 72.2945C219.459 72.9611 219.227 73.917 219.227 75.1621C219.227 76.4073 219.453 77.3631 219.905 78.0297C220.37 78.6837 221.041 79.0108 221.92 79.0108C222.937 79.0108 223.678 78.7404 224.142 78.1995C224.607 77.6462 224.838 76.7594 224.838 75.5394V75.1432C224.838 73.7597 224.6 72.7724 224.123 72.1813C223.646 71.5776 222.899 71.2757 221.882 71.2757Z" fill="#163A24"/>
<path d="M238.378 69.8984C239.609 69.8984 240.519 70.1689 241.109 70.7097C241.699 71.2505 241.994 72.1121 241.994 73.2943V80.1804H240.788L240.468 78.7466H240.393C239.954 79.3 239.489 79.7087 239 79.9729C238.523 80.237 237.857 80.3691 237.003 80.3691C236.087 80.3691 235.327 80.1301 234.725 79.6522C234.122 79.1616 233.821 78.4007 233.821 77.3694C233.821 76.3631 234.216 75.5896 235.007 75.0489C235.798 74.4954 237.017 74.1936 238.661 74.1433L240.374 74.0867V73.483C240.374 72.6403 240.192 72.0555 239.828 71.7284C239.465 71.4014 238.95 71.2379 238.284 71.2379C237.757 71.2379 237.255 71.3197 236.777 71.4832C236.301 71.6341 235.855 71.8102 235.44 72.0114L234.932 70.7663C235.372 70.5273 235.892 70.326 236.495 70.1626C237.098 69.9864 237.726 69.8984 238.378 69.8984ZM238.868 75.2941C237.613 75.3444 236.74 75.5457 236.25 75.8978C235.774 76.25 235.535 76.7468 235.535 77.3882C235.535 77.9542 235.704 78.3693 236.043 78.6334C236.395 78.8975 236.841 79.0296 237.38 79.0296C238.234 79.0296 238.943 78.7969 239.508 78.3315C240.073 77.8536 240.355 77.1241 240.355 76.1431V75.2375L238.868 75.2941Z" fill="#163A24"/>
<path d="M248.482 79.0107C248.733 79.0107 248.99 78.9918 249.254 78.9541C249.518 78.9038 249.731 78.8534 249.894 78.8031V80.0672C249.719 80.1552 249.468 80.2244 249.141 80.2747C248.815 80.3376 248.501 80.369 248.2 80.369C247.672 80.369 247.183 80.281 246.731 80.1049C246.292 79.9162 245.934 79.5955 245.657 79.1427C245.381 78.69 245.243 78.0548 245.243 77.2373V71.3511H243.812V70.5587L245.262 69.8984L245.921 67.7477H246.9V70.0682H249.819V71.3511H246.9V77.1995C246.9 77.8158 247.045 78.2749 247.333 78.5768C247.635 78.8661 248.018 79.0107 248.482 79.0107Z" fill="#163A24"/>
<path d="M251.671 71.087C251.671 70.609 251.784 70.2757 252.01 70.0871C252.236 69.8984 252.505 69.8041 252.82 69.8041C253.145 69.8041 253.422 69.8984 253.648 70.0871C253.887 70.2757 254.006 70.609 254.006 71.087C254.006 71.5397 253.887 71.8668 253.648 72.068C253.422 72.2692 253.145 72.3699 252.82 72.3699C252.505 72.3699 252.236 72.2692 252.01 72.068C251.784 71.8668 251.671 71.5397 251.671 71.087ZM251.671 79.1616C251.671 78.6963 251.784 78.3692 252.01 78.1806C252.236 77.9919 252.505 77.8976 252.82 77.8976C253.145 77.8976 253.422 77.9919 253.648 78.1806C253.887 78.3692 254.006 78.6963 254.006 79.1616C254.006 79.6144 253.887 79.9414 253.648 80.1426C253.422 80.3438 253.145 80.4445 252.82 80.4445C252.505 80.4445 252.236 80.3438 252.01 80.1426C251.784 79.9414 251.671 79.6144 251.671 79.1616Z" fill="#163A24"/>
<path d="M165.714 7.95376C82.8572 7.18884 -2.91873 23.3955 2.354 107.538C5.33568 132.849 39.9225 183.002 154.416 181.115C210.438 181.115 286.045 146.779 283.409 79.2389C280.428 51.8832 287.834 -4.14564 130.406 1.88853C124.757 2.10509 80.0324 5.66147 65.9091 11.3214C30.1299 21.2261 -25.8929 63.6745 22.1269 121.687C36.1816 138.667 69.1108 170.645 174.188 166.494C214.519 164.922 339.903 109.896 263.636 38.677C235.86 12.7392 165.714 -9.43301 34.3669 26.5345" stroke="#FBC8B8" stroke-width="3"/>
</g>
<defs>
<clipPath id="clip0_1_1291">
<rect width="290" height="183" fill="white"/>
</clipPath>
</defs>
</svg>
