<svg width="83" height="75" viewBox="0 0 83 75" fill="none" xmlns="http://www.w3.org/2000/svg">
<g clip-path="url(#clip0_1_1243)">
<path d="M35.923 25.6696C38.2813 22.5801 41.7996 0.559416 48.1226 6.57315C52.24 10.4763 54.7003 21.4104 58.2314 25.5552C62.5402 30.6026 84.1474 25.4916 82.9364 33.5777C82.095 39.1846 69.972 42.7191 66.7978 47.2071C60.6917 55.8272 71.081 61.7012 70.4309 70.1179C69.7425 78.9413 56.1281 70.0797 51.9851 67.6386C48.5687 65.6297 46.5035 63.6209 42.5518 64.689C35.6936 66.5324 32.1624 74.0719 24.8963 74.9746C17.5537 75.89 25.0875 60.0356 26.1201 57.6072C26.9996 55.5476 30.7219 50.0551 30.1738 47.7666C29.1795 43.6091 20.8171 42.3122 17.3624 41.2061C11.5113 39.3499 8.03114 33.0438 14.6727 31.9757C22.487 30.7043 32.0859 30.6916 35.923 25.6696Z" fill="#F7BC28"/>
<path d="M40.9329 33.031C42.2332 31.3273 44.1708 19.2363 47.6382 22.5419C49.8945 24.6906 51.2585 30.6917 53.1961 32.9674C55.5672 35.7391 67.4353 32.9293 66.7724 37.3792C66.3135 40.456 59.6465 42.4013 57.9 44.8678C54.5474 49.5974 60.2584 52.8267 59.9014 57.4546C59.519 62.2987 52.0489 57.4292 49.7671 56.0942C47.8931 54.9881 46.7586 53.882 44.5788 54.4668C40.8182 55.484 38.8678 59.6288 34.8778 60.1246C30.8495 60.6204 34.9798 51.924 35.5534 50.5763C36.0378 49.4448 38.0774 46.4315 37.7715 45.1729C37.2234 42.8844 32.6215 42.1724 30.7348 41.5748C27.5224 40.5577 25.6102 37.0868 29.2561 36.5019C33.5521 35.79 38.8168 35.79 40.9329 33.031Z" fill="#E48929"/>
<path d="M70.3544 8.18783C70.4818 5.59417 71.03 3.01322 71.9861 0.584848C72.1007 0.292425 72.3303 -0.0635674 72.6489 2.72831e-06C72.8784 0.0508588 72.9931 0.305139 73.0569 0.521277C73.5923 2.11053 73.9364 3.75064 74.0767 5.42889C74.1021 5.65774 74.1276 5.91202 74.2934 6.06459C74.5611 6.30615 74.9945 6.15359 75.3132 5.98831C76.8556 5.18732 78.4109 4.37362 79.9533 3.57264C80.0298 5.55603 77.7862 6.73843 76.7919 8.45486C76.639 8.72183 76.5114 9.01424 76.5752 9.31938C76.6262 9.59907 76.8429 9.8025 77.0341 10.0059C78.4364 11.4299 79.8386 12.8539 81.2536 14.2905C79.1375 14.5194 76.9321 13.8837 75.2622 12.5615C75.2622 15.0407 74.9945 17.5326 74.4463 19.961C73.2608 18.1175 72.3813 16.0706 71.8841 13.9473C70.6476 14.8373 69.3983 15.7145 68.1617 16.6045C68.7991 15.2696 69.4365 13.9346 70.0739 12.6123C70.1504 12.4343 70.2396 12.2563 70.2269 12.0656C70.2014 11.7605 69.9337 11.5444 69.6788 11.3663C68.302 10.4637 65.5357 9.76433 65.1915 7.95898C66.6066 7.37414 68.8374 7.90812 70.3544 8.18783Z" fill="#FBC8B8"/>
<path d="M4.42343 57.6072C4.47443 55.6366 4.8951 53.6658 5.65996 51.8477C5.73644 51.657 5.87667 51.4282 6.08063 51.4536C6.27184 51.4663 6.36108 51.6825 6.42482 51.8605C6.82 53.0683 7.0877 54.3143 7.21517 55.573C7.24067 55.7637 7.26617 55.9671 7.39364 56.0942C7.66134 56.3358 8.06927 56.107 8.34972 55.8908C9.34402 55.1406 10.4658 54.5813 11.6513 54.2253C11.4857 55.7383 9.84118 56.6155 9.12729 57.9632C9.05081 58.1031 8.98712 58.2556 9.01261 58.4209C9.03811 58.5989 9.17828 58.7514 9.30583 58.8786C10.3893 59.9466 11.4729 61.0273 12.5437 62.108C10.9885 62.5403 9.39501 61.6629 8.01827 60.8239C8.05652 62.7055 7.87806 64.5872 7.45738 66.418C6.56505 64.994 5.91491 63.4303 5.54523 61.7901C4.64015 62.5021 3.73507 63.2268 2.82998 63.9388C2.97021 62.9852 3.39088 62.0825 4.01551 61.3578C4.20673 61.1417 4.43619 60.9001 4.41069 60.6077C4.38519 60.3153 4.11749 60.0992 3.87529 59.9339C2.58777 59.0693 1.28752 58.1921 0 57.3148C0.2677 56.9842 0.803102 56.9079 1.16004 57.1495L4.42343 57.6072Z" fill="#FBC8B8"/>
</g>
<defs>
<clipPath id="clip0_1_1243">
<rect width="83" height="75" fill="white"/>
</clipPath>
</defs>
</svg>
