<svg width="82" height="75" viewBox="0 0 82 75" fill="none" xmlns="http://www.w3.org/2000/svg">
<path d="M26.24 3.04608C20.418 5.59822 15.252 9.71457 12.136 14.7365C4.34601 27.3326 4.42801 46.4325 17.63 55.4061C33.62 66.2733 61.91 60.7574 63.796 38.5291C65.682 16.1361 50.266 -7.32714 26.24 3.04608Z" fill="#F7BC28"/>
<path d="M28.946 9.5499C24.6 11.4434 20.828 14.4895 18.532 18.1942C12.71 27.5795 12.792 41.7398 22.632 48.4083C34.522 56.4764 55.514 52.36 56.908 35.8946C58.22 19.3468 46.822 1.89348 28.946 9.5499Z" fill="#FBFAF7"/>
<path d="M48.708 52.6893C52.726 57.7936 55.186 60.2634 58.958 63.3919C61.664 65.6147 64.37 67.8375 66.994 70.0604C69.208 71.8716 71.832 73.8474 74.62 73.3535C77.572 72.8595 79.622 69.4018 78.638 66.5203C78.31 65.5324 77.654 64.6268 76.916 63.8035C71.832 57.2997 65.928 51.4544 59.368 46.3502L48.708 52.6893Z" fill="#F7BC28"/>
<path d="M63.14 66.7672L72.57 58.4522L74.374 60.5104L65.19 68.4138L63.14 66.7672Z" fill="#E48929"/>
<path d="M66.42 69.5664L75.358 61.8276L76.916 63.8035L68.306 71.1306L66.42 69.5664Z" fill="#E48929"/>
</svg>
