<svg width="95" height="150" viewBox="0 0 95 150" fill="none" xmlns="http://www.w3.org/2000/svg">
<g clip-path="url(#clip0_1_535)">
<path d="M25.92 21.4941C16.73 48.1235 8.93998 76.2706 2.69998 105.459C1.25998 112.182 -0.120022 119.171 0.00997831 126.353C0.139978 133.535 2.08998 141.071 5.75998 144.176C7.83998 145.941 10.22 146.135 12.52 146.241C33.91 147.159 55.37 142.341 75.94 131.982C84.25 127.8 93.9 119.453 94.34 104.224C94.64 93.7588 90.28 84.9882 87.59 75.6353C83.21 60.4059 83.03 41.7706 77.37 27.9176C72.25 15.3706 65.61 2.2765 56.89 0.93533C51.74 0.141212 46.1 -0.917612 40.41 1.42945C34.16 3.98827 28.91 11.4706 25.92 21.4941Z" fill="#F7BC28"/>
<path d="M32.5002 24.3706C28.7302 43.5 27.1802 64.2883 28.0002 84.7236C28.4002 94.5706 29.4102 104.7 32.4002 112.694C36.2302 122.947 43.1002 128.259 49.5702 126.847C56.0402 125.435 61.9602 117.724 65.5402 107.118C70.7702 91.6412 71.0002 71.8236 70.3002 53.3294C69.6702 36.8824 67.5902 18.053 60.0702 10.5001C54.1602 4.57067 47.0202 7.92362 40.6102 11.4001L32.5002 24.3706Z" fill="#FFC9A0"/>
<path d="M23.4102 64.6059C32.3102 64.6765 42.4902 57.4941 44.7302 53.7353C51.4802 42.353 52.1602 18.7941 51.9602 3.14124L30.8102 16.5177L23.5602 40.553L23.4102 64.6059Z" fill="#F7BC28"/>
<path d="M47.1699 3.12354C47.1699 3.12354 56.1799 48.3882 75.1099 54.8823L72.1299 35.4L64.6299 10.0235L47.1699 3.12354Z" fill="#F7BC28"/>
<path d="M58.1199 52.1118C57.6199 51.9706 57.1299 52.4294 56.9099 53.2412C56.8599 53.4353 56.7999 53.6294 56.7599 53.8412C56.6199 54.5118 56.6299 55.4118 56.9899 55.7471C57.1299 55.8882 57.2999 55.8882 57.4599 55.8882C59.1399 55.9412 60.8099 56.3471 62.4499 57.0353C63.2799 57.3882 64.0999 57.8118 64.9099 58.3235C65.1099 58.4471 65.8599 59.1882 66.0399 59.0647C66.3799 58.8529 66.2099 57.7765 66.0699 57.3882C65.8799 56.8765 65.5699 56.5412 65.2799 56.2235L65.1999 56.1353C63.5499 54.3529 61.7099 53.1353 59.7999 52.6059L58.1199 52.1118Z" fill="#F7BC28"/>
<path d="M42.5602 8.75305C35.9902 8.7707 29.2402 27.3707 26.9202 36.706C24.3302 47.1354 19.7502 58.306 16.6002 68.2237C13.5202 77.9296 10.4602 87.7237 8.12018 98.0825C6.96018 103.2 5.99018 108.459 5.31018 113.841C4.70018 118.606 4.82018 119.753 4.46018 124.677C4.05018 130.271 4.18018 136.818 7.36018 137.859C10.4802 138.882 16.2202 138.635 19.3402 139.359C19.9202 139.5 20.1802 137.912 19.5902 137.771C15.0702 136.694 7.59018 140.118 5.80018 129.882C4.98018 125.188 5.52018 120.018 6.09018 115.341C6.70018 110.294 12.8202 91.059 13.8502 86.2413C18.0802 66.5296 21.2402 63.2825 26.3402 44.2943C29.1902 33.6884 32.2702 21.4943 37.6602 14.1178C38.5002 12.9531 39.4302 11.9825 40.4502 11.4354C41.3202 10.9766 42.6902 10.3766 43.4402 10.0236C44.3902 9.54717 44.1702 8.75305 42.5602 8.75305Z" fill="white"/>
<path d="M33.05 135.547C32.9 135.547 32.76 135.53 32.61 135.512C29.71 135.018 25.08 133.659 22.47 131.771C20.12 130.077 17.54 127.659 16.21 123.688C13.92 116.894 14.3 106.218 17.37 100.324C17.77 99.5472 17.92 97.6589 17.51 98.4354C14.86 103.535 13.45 109.129 13.92 115.835C14.24 120.335 14.13 124.747 15.5 127.059C17.18 129.9 20.61 132.282 22.76 133.747C25.37 135.512 28.87 136.147 31.64 136.588C32.23 136.694 35.06 136.588 34.69 135.565H33.05V135.547Z" fill="white"/>
<path d="M23.2603 88.8708C21.8903 95.4531 20.3503 106.288 21.2203 111.671C21.7303 114.794 25.1003 119.524 27.7903 123.477C28.2503 124.147 29.2503 124.641 28.7903 123.953C26.2303 120.194 23.3903 116.012 22.5003 110.083C21.4903 103.394 22.5703 94.6061 23.8903 88.3061C24.0903 87.3178 23.4703 87.8825 23.2603 88.8708Z" fill="white"/>
<path d="M25.9904 57.7413C29.3204 56.8766 32.4604 54.7413 35.5204 52.3413C38.3504 50.1355 42.8904 46.4119 45.1604 42.6002C47.4104 38.7884 47.9004 32.259 48.9104 27.1237C50.0104 21.5825 49.8304 18.4943 49.8504 12.6354C49.8504 11.5766 49.1904 8.73541 49.1904 9.79423C49.1904 26.2943 47.1704 35.7531 42.5904 43.1472C40.4204 46.6413 37.7004 48.8649 35.0404 50.9296C32.0504 53.259 28.9804 55.3237 25.7304 56.1531C25.1504 56.3119 25.4004 57.9002 25.9904 57.7413Z" fill="white"/>
<path d="M32.2003 39.9882C32.9903 34.7999 36.6403 29.5764 38.7403 25.6235C41.0303 21.3352 41.5303 19.8882 44.3103 16.6765C44.8103 16.0941 45.2903 13.4823 44.7903 14.0647C41.8103 17.5059 37.9703 22.6764 35.5803 27.3352C33.4503 31.4823 32.1003 35.8764 31.9103 38.5764C31.8403 39.6176 31.5303 42.3705 31.9003 42.6176L32.2003 39.9882Z" fill="white"/>
<path d="M39.8203 34.9413C42.7403 28.4119 46.0503 20.3295 45.5503 15.0001C45.4503 13.9766 44.7403 13.5178 44.6503 14.5589C44.0003 22.7648 40.9503 30.9531 38.1303 37.2884C37.7603 38.1001 38.5303 37.8354 38.9003 37.006L39.8203 34.9413Z" fill="white"/>
<path d="M77.22 55.0942C66.72 50.153 58.31 34.4119 56.12 15.6353C55.97 15.9883 55.82 16.3236 55.67 16.6765C62.34 15.6 68.2 23.0295 72.02 32.1001C76.41 42.5295 78.21 55.4648 80.6 67.5354C81.84 73.7824 83.37 79.6766 85.04 85.606C86.68 91.4295 88.37 97.8001 87.93 104.471C87.2 115.624 80.86 121.977 75.45 125.382C67.13 130.624 58.1 132.953 49.29 133.094C48.69 133.112 47.31 135.565 47.9 135.565C56.33 135.424 63.65 133.677 71.69 129.177C77.21 126.088 86.63 118.394 88.81 108.194C90.1 102.177 90.24 96.8824 88.89 91.1119C87.37 84.5824 83.89 78.3883 82.45 71.7883C79.67 59.0119 76.44 40.0236 74.81 35.4177C69.92 21.5119 63.23 13.8177 55.68 15.0353C55.37 15.0883 55.17 15.5118 55.23 16.0765C58.4 42.9707 66.18 51.6001 76.98 56.6648C77.56 56.9472 77.8 55.3766 77.22 55.0942Z" fill="white"/>
<path d="M47.75 127.747C54.31 128.718 64.89 127.641 71.16 123.547C76.24 120.229 77.37 115.323 79.61 106.359C80.86 101.347 81.73 101.823 79.55 90.547C79.36 89.5411 78.39 89.2058 78.7 90.1058C81.69 98.9294 77.81 110.912 73.93 116.559C69.56 122.929 63.93 125.753 58.36 126.476C54.83 126.935 51.28 126.635 47.76 126.106C47.15 126.018 47.15 127.659 47.75 127.747Z" fill="white"/>
<path d="M83.2801 109.659C85.9701 103.465 84.9801 99.2472 84.0101 91.8354C82.8701 83.153 79.9401 75.6001 77.2501 68.2236C76.9301 67.3413 76.1201 68.1531 76.4501 69.0531C79.0101 76.0589 81.7601 83.1354 82.9801 91.2883C84.0701 98.5766 84.3501 104.541 82.0001 112.041C81.7101 112.959 81.5501 114.547 81.9101 113.718L83.2801 109.659Z" fill="white"/>
<path d="M64.5004 114.794C68.6404 112.677 72.3504 103.43 74.0304 96.5472C76.0804 88.0942 73.7004 83.1001 72.5504 74.3295C72.4104 73.306 71.5204 73.7295 71.6504 74.7707C72.7404 83.0472 73.0504 92.0295 71.2004 100.041C69.6704 106.659 66.3804 111.106 62.6904 114.335C62.3404 114.635 61.6304 115.959 61.6304 115.959L64.5004 114.794Z" fill="white"/>
<path d="M62.7401 29.3648C64.3801 30.6531 66.2401 33.0354 67.6501 35.6119C69.1101 38.2942 72.4401 45.3354 73.6801 48.3354C76.0801 54.1942 76.0501 56.4178 77.5001 63.1766C77.7101 64.1472 78.6101 63.7236 78.4001 62.7354C76.8501 55.4825 74.7601 48.6354 72.1401 42.4236C70.8701 39.406 70.9501 38.0825 69.4501 35.4001C68.0101 32.8236 66.1101 30.106 64.1001 29.0648C63.5201 28.7648 62.1601 29.0648 62.7401 29.3648Z" fill="white"/>
<path d="M29.6502 63.6355C25.6802 64.7826 24.2502 64.6943 20.6102 67.9414C18.0002 70.2708 15.2502 73.659 14.8302 78.7767C14.2902 85.359 18.0202 90.8296 21.7202 92.1002C25.4202 93.3708 29.2402 91.9414 33.0002 92.4708" fill="#FFC9A0"/>
<path d="M69.25 53.1352C72.61 52.5352 76.03 53.3293 79.19 55.4293C82.35 57.5293 85.03 63.1764 84.46 69.0352C83.84 75.3529 80.04 78.8646 76.62 80.9999C73.41 82.9941 70.12 84.5999 66.79 85.7999" fill="#FFC9A0"/>
<path d="M40.8701 124.218L43.6001 149.365H51.9601L54.9801 116.806L40.8701 124.218Z" fill="#FFC9A0"/>
<path d="M32.6899 102.247C32.5699 102.441 32.3899 102.441 32.2699 102.247C31.3199 100.765 30.2099 99.6176 29.2199 98.2059C28.1599 96.6882 27.1999 94.7471 26.9599 92.3823C26.5099 87.9353 29.0899 84.9176 31.1799 87.7765C31.7699 88.5706 32.2299 89.6294 32.6599 90.7059C32.6999 90.8118 32.8099 90.7588 32.7999 90.6176C32.7199 89.3823 32.9799 88.0765 33.4399 87.1235C34.2299 85.4471 35.9099 84.0176 37.1799 84.4412C38.9699 85.0235 38.9299 88.6765 38.4399 91.0765C37.8499 93.9706 36.1599 96.5294 34.9199 98.5588L32.6899 102.247Z" fill="#F1673C"/>
<path d="M65.5398 99.547C65.4098 99.7235 65.2298 99.6705 65.1298 99.4588C64.2798 97.7999 63.2598 96.4411 62.3698 94.8352C61.4098 93.1235 60.5898 90.9882 60.4998 88.5882C60.3398 84.0705 63.0998 81.6176 64.9998 84.8646C65.5298 85.7823 65.9198 86.9117 66.2798 88.0764C66.3198 88.1999 66.4198 88.147 66.4198 88.0235C66.4198 86.7705 66.7698 85.5352 67.2898 84.6705C68.1898 83.1705 69.9398 82.0941 71.1798 82.7646C72.9198 83.7176 72.6398 87.3176 71.9998 89.6117C71.2198 92.3646 69.3798 94.5529 68.0198 96.3352L65.5398 99.547Z" fill="#F1673C"/>
<path d="M53.84 108.124C57.03 105.759 59.53 101.206 60.74 95.4884C60.86 94.906 60.6 94.2354 60.29 94.0766C59.93 93.9001 59.61 94.2884 59.49 94.8707C58.46 99.7589 56.23 103.888 53.5 105.9C53.18 106.147 52.94 106.659 53.05 107.312C53.12 107.859 53.51 108.371 53.84 108.124Z" fill="#010101"/>
<path d="M54.3603 66.9884C54.9203 71.1884 57.1803 74.7531 59.7303 73.7296C62.0903 72.7766 63.1203 68.3472 63.8003 64.7119C63.4803 64.9413 63.1603 65.1707 62.8503 65.4002C64.3903 66.7943 65.9303 68.1707 67.4703 69.5649C68.2103 70.2355 68.8703 68.259 68.1303 67.5884C66.5903 66.1943 65.0503 64.8178 63.5103 63.4237C63.1203 63.0707 62.6903 63.3707 62.5603 64.1119C62.0603 66.7766 61.3803 70.3237 59.7203 71.3649C57.7603 72.6002 56.0503 69.5296 55.6303 66.3884C55.4203 64.9413 54.1603 65.559 54.3603 66.9884Z" fill="#010101"/>
<path d="M61.8901 69.7058C61.9501 69.7764 62.0001 69.847 62.0501 69.9176C62.1401 70.0411 62.0701 69.9529 62.0201 69.8823C62.0601 69.9352 62.0901 69.9882 62.1301 70.0411C62.2601 70.2352 62.4001 70.4117 62.5301 70.6058C62.8401 71.047 63.1401 71.5058 63.4501 71.947C64.0301 72.7941 64.6001 73.6588 65.2101 74.4352C65.4901 74.7882 65.9501 74.5411 66.1001 74.0293C66.2801 73.4293 66.1601 72.8294 65.8701 72.4588C65.8101 72.3882 65.7601 72.3176 65.7101 72.247C65.6201 72.1235 65.6901 72.2117 65.7401 72.2823C65.7001 72.2293 65.6701 72.1764 65.6301 72.1235C65.5001 71.9293 65.3601 71.7529 65.2301 71.5588C64.9201 71.1176 64.6201 70.6588 64.3101 70.2176C63.7301 69.3705 63.1601 68.5058 62.5501 67.7293C62.2701 67.3764 61.8101 67.6235 61.6601 68.1352C61.4801 68.7176 61.6001 69.3176 61.8901 69.7058Z" fill="#010101"/>
<path d="M42.97 69.9354C42.55 73.0766 40.84 76.1472 38.88 74.9119C37.22 73.8707 36.54 70.3237 36.04 67.659C35.9 66.9354 35.47 66.6178 35.09 66.9707C33.55 68.3649 32.01 69.7413 30.47 71.1354C29.72 71.806 30.38 73.7825 31.13 73.1119C32.67 71.7178 34.21 70.3413 35.75 68.9472C35.43 68.7178 35.11 68.4884 34.8 68.259C35.48 71.8943 36.51 76.306 38.87 77.2766C41.42 78.3178 43.68 74.7354 44.24 70.5354C44.42 69.1237 43.16 68.506 42.97 69.9354Z" fill="#010101"/>
<path d="M36.0301 71.2766C35.4201 72.0531 34.8501 72.9178 34.2701 73.7649C33.9601 74.2061 33.6601 74.6649 33.3501 75.1061C33.2201 75.3002 33.0901 75.4766 32.9501 75.6708C32.9201 75.7237 32.8901 75.759 32.8501 75.8119C32.8101 75.8649 32.9901 75.6355 32.8601 75.7943C32.8101 75.8649 32.7501 75.9355 32.7001 76.0061C32.4301 76.359 32.2601 77.0119 32.4701 77.5766C32.6501 78.0531 33.0701 78.3708 33.3601 77.9825C33.9701 77.2061 34.5401 76.3414 35.1201 75.4943C35.4301 75.0531 35.7301 74.5943 36.0401 74.1531C36.1701 73.959 36.3001 73.7825 36.4401 73.5884C36.4701 73.5355 36.5001 73.5002 36.5401 73.4472C36.5801 73.3943 36.4001 73.6237 36.5301 73.4649C36.5801 73.3943 36.6401 73.3237 36.6901 73.2531C36.9601 72.9002 37.1301 72.2472 36.9201 71.6825C36.7501 71.2061 36.3301 70.9061 36.0301 71.2766Z" fill="#010101"/>
<path d="M73.5802 61.3764C74.7602 61.0588 76.0202 61.447 77.1702 61.9588C78.3102 62.4706 79.4802 63.1235 80.1502 64.9764C80.5002 65.947 80.6302 67.0235 80.4002 68.1353C80.1902 69.1588 79.8002 70.1294 79.3802 70.9235C78.6402 72.3 77.6802 73.2 76.7102 73.9235C75.5502 74.7882 74.3402 75.4411 73.1902 76.3411C72.6402 76.7647 73.1202 78.1764 73.6602 77.7531C75.9402 75.9706 78.6402 75.1235 80.3102 71.5588C81.2402 69.5823 81.8202 67.1647 81.1402 64.6941C80.5102 62.4353 79.2902 61.3235 77.9802 60.6353C76.5002 59.8588 74.8902 59.3823 73.3502 59.7882C72.7402 59.947 72.9902 61.5353 73.5802 61.3764Z" fill="#010101"/>
<path d="M74.4002 70.8C74.7602 70.6765 75.1202 70.3765 75.4402 70.0942C75.8902 69.7236 76.3202 69.2647 76.7102 68.7177C77.0602 68.2236 77.3902 67.553 77.4202 66.7412C77.4502 65.6647 76.8902 65.0295 76.3902 64.6589C75.6802 64.1471 74.8902 64.0589 74.1302 63.9353C73.8902 63.9 73.6602 64.3412 73.6702 64.7471C73.6802 65.2236 73.8702 65.5236 74.1302 65.5589C74.2602 65.5765 74.3902 65.5942 74.5202 65.6118C74.6002 65.6295 74.6702 65.6295 74.7502 65.6471C74.7802 65.6471 74.8102 65.6647 74.8302 65.6647C74.8502 65.6647 74.9902 65.7 74.9402 65.6824C74.8702 65.6648 75.0102 65.7 75.0102 65.7C75.0502 65.7177 75.1002 65.7177 75.1402 65.7353C75.2102 65.753 75.2902 65.7706 75.3602 65.8059C75.5202 65.8589 75.6702 65.9295 75.8302 66C75.9002 66.0353 75.9602 66.0706 76.0302 66.1236C76.0602 66.1412 76.0802 66.1589 76.1102 66.1765C76.0102 66.1059 76.1302 66.1942 76.1502 66.2118C76.2102 66.2647 76.2702 66.3177 76.3202 66.3706C76.3502 66.4059 76.3702 66.4236 76.4002 66.4589C76.5102 66.5824 76.3602 66.3883 76.4102 66.4765C76.4402 66.5295 76.4702 66.5824 76.4902 66.6177C76.5502 66.7059 76.4302 66.4412 76.4702 66.5648C76.4802 66.5824 76.4802 66.6 76.4902 66.6177C76.5502 66.7765 76.4602 66.4236 76.4902 66.6C76.4802 66.4236 76.5302 66.8295 76.4902 66.6C76.4902 66.6177 76.4802 66.6883 76.4902 66.6883C76.4802 66.6706 76.5202 66.4765 76.5002 66.5648C76.4902 66.6177 76.4802 66.6706 76.4702 66.7236C76.4502 66.8648 76.5302 66.5295 76.4902 66.653C76.4802 66.6706 76.4702 66.7059 76.4702 66.7412C76.4502 66.8118 76.4302 66.8647 76.4102 66.9177C76.3602 67.0412 76.4902 66.7589 76.4302 66.8824C76.4202 66.9 76.4002 66.9353 76.3902 66.9706C76.3602 67.0236 76.3302 67.0765 76.3002 67.1295C76.2302 67.253 76.1502 67.3765 76.0702 67.5C76.0502 67.5353 76.0102 67.6059 76.1002 67.4647C76.0802 67.5 76.0502 67.5353 76.0302 67.553C75.9902 67.6059 75.9502 67.6589 75.9102 67.7118C75.8202 67.8177 75.7202 67.9236 75.6302 68.0295C75.4502 68.2236 75.2602 68.4 75.0702 68.5589C74.9702 68.6471 74.8702 68.7353 74.7602 68.8059C74.7502 68.8236 74.7302 68.8412 74.7102 68.8412C74.8502 68.7706 74.7402 68.8236 74.7002 68.8412C74.6602 68.8765 74.6102 68.9118 74.5702 68.9295C74.4402 69.0177 74.3002 69.1059 74.1702 69.1589C73.9302 69.2471 73.7702 69.7765 73.8502 70.1647C73.9102 70.6942 74.1502 70.8883 74.4002 70.8Z" fill="#010101"/>
<path d="M25.8701 86.0472C24.2501 86.4001 22.6201 86.1707 21.0501 85.3236C19.9301 84.7236 17.7501 83.5236 18.0501 80.806C18.1901 79.5354 18.7101 78.4589 19.2101 77.5766C19.7201 76.6766 20.2701 75.8472 20.8701 75.1413C22.1001 73.6589 23.4701 72.6354 24.9201 72.0707C25.5001 71.8413 25.2601 70.2707 24.6701 70.4825C22.1401 71.4707 19.5901 73.9236 17.9701 77.5413C17.1901 79.2884 16.6901 81.6883 17.5201 83.6648C18.2801 85.4825 19.7601 86.3648 20.9401 86.9825C22.5301 87.8119 24.2101 88.0413 25.8501 87.6884C26.4601 87.5648 26.4701 85.9236 25.8701 86.0472Z" fill="#010101"/>
<path d="M23.9503 75.5117C23.3203 75.6352 22.7203 75.9352 22.1503 76.4117C21.6303 76.8529 21.0903 77.4705 20.7303 78.2823C20.3203 79.1823 20.2503 80.294 20.5403 81.3352C20.7903 82.2529 21.2803 82.9234 21.8303 83.2234C22.5503 83.6293 23.3203 83.4176 24.0503 83.2234C24.3003 83.1529 24.4403 82.6058 24.3703 82.2176C24.3003 81.7411 24.0503 81.5823 23.8003 81.6529C23.2003 81.8117 22.5403 81.9882 21.9603 81.5823C22.0103 81.6176 21.8603 81.494 21.8503 81.4764C21.7903 81.4234 21.7403 81.3529 21.6803 81.2823C21.7103 81.3176 21.7003 81.2999 21.6603 81.247C21.6403 81.2117 21.6103 81.1587 21.5903 81.1234C21.5803 81.1058 21.4703 80.894 21.5003 80.9646C21.4603 80.8764 21.4303 80.7705 21.3903 80.6823C21.3703 80.6293 21.3603 80.5764 21.3503 80.5234C21.3603 80.594 21.3603 80.5764 21.3403 80.4882C21.3203 80.3823 21.3003 80.2764 21.2903 80.1705C21.3003 80.3117 21.2903 80.0117 21.2903 79.9764C21.2903 79.8705 21.2903 79.8705 21.2903 79.9411C21.3003 79.8882 21.3003 79.8352 21.3103 79.7823C21.3203 79.694 21.3303 79.6587 21.3703 79.5529C21.4303 79.3587 21.5103 79.2176 21.6103 79.0411C21.8203 78.6882 22.0603 78.4058 22.3103 78.1587C22.8103 77.647 23.4003 77.294 23.9603 77.1882C24.2103 77.1352 24.4203 76.8529 24.4203 76.3764C24.4103 75.9352 24.2003 75.4764 23.9503 75.5117Z" fill="#010101"/>
<path d="M49.5897 78.3002C50.3997 81.9708 51.3197 85.6414 51.9797 89.312C52.1397 90.212 51.7497 91.112 51.2197 91.1296C50.2797 91.1472 49.1697 91.1649 48.2497 91.1649C47.7797 91.1649 47.4097 90.459 47.4497 89.612L48.0497 78.6531C48.1297 77.1708 49.2797 76.9061 49.5897 78.3002Z" fill="#E48929"/>
<path d="M54.2499 124.659C54.2499 124.659 47.6999 129.3 40.8599 124.218L41.3799 128.982L53.1399 136.588L54.2499 124.659Z" fill="#EFB086"/>
<path d="M49.8097 12.0706C53.1297 11.9117 56.1197 9.77645 59.4097 10.7647C61.6897 11.4529 64.3697 13.5353 66.2297 15.7941C70.0797 20.4706 72.9997 25.3941 76.0097 31.7647C76.4197 32.647 80.2997 42.9176 77.0597 31.6941C74.8497 24.0706 69.6697 18.5647 65.6797 13.747C63.7797 11.4529 61.9697 9.74116 59.6697 9.05292C56.2897 8.02939 49.1097 7.19998 49.1397 8.32939C49.1897 9.77645 49.1897 11.0823 49.1897 11.0823L49.8097 12.0706Z" fill="white"/>
</g>
<defs>
<clipPath id="clip0_1_535">
<rect width="95" height="150" fill="white"/>
</clipPath>
</defs>
</svg>
