<svg width="66" height="145" viewBox="0 0 66 145" fill="none" xmlns="http://www.w3.org/2000/svg">
<g clip-path="url(#clip0_1_510)">
<path d="M56.7665 145H9.23355C4.13276 145 0 137.464 0 128.162V25.6416C0 16.3401 4.13276 8.80383 9.23355 8.80383H56.7665C61.8672 8.80383 66 16.3401 66 25.6416V128.162C66 137.464 61.8672 145 56.7665 145Z" fill="#F7BC28"/>
<path d="M55.5254 53.2295H10.4746C8.32754 53.2295 6.57764 50.0384 6.57764 46.1232V26.3432C6.57764 22.428 8.32754 19.2369 10.4746 19.2369H55.5254C57.6724 19.2369 59.4223 22.428 59.4223 26.3432V46.1232C59.4223 50.0384 57.6724 53.2295 55.5254 53.2295Z" fill="#E48929"/>
<path d="M55.5254 92.4498H10.4747C8.6627 92.4498 7.19824 89.7793 7.19824 86.4751V66.6953C7.19824 63.3911 8.6627 60.7206 10.4747 60.7206H55.5254C57.3374 60.7206 58.8019 63.3911 58.8019 66.6953V86.4751C58.8019 89.7793 57.3374 92.4498 55.5254 92.4498Z" fill="#E48929"/>
<path d="M55.5254 133.933H10.4746C8.32754 133.933 6.57764 130.742 6.57764 126.827V107.047C6.57764 103.132 8.32754 99.9409 10.4746 99.9409H55.5254C57.6724 99.9409 59.4223 103.132 59.4223 107.047V126.827C59.4223 130.742 57.6724 133.933 55.5254 133.933Z" fill="#E48929"/>
<path d="M33.3476 82.6051C35.1709 82.6051 36.6489 79.9099 36.6489 76.5852C36.6489 73.2604 35.1709 70.5652 33.3476 70.5652C31.5244 70.5652 30.0464 73.2604 30.0464 76.5852C30.0464 79.9099 31.5244 82.6051 33.3476 82.6051Z" fill="#F7BC28"/>
<path d="M33.3476 122.957C35.1709 122.957 36.6489 120.262 36.6489 116.937C36.6489 113.612 35.1709 110.917 33.3476 110.917C31.5244 110.917 30.0464 113.612 30.0464 116.937C30.0464 120.262 31.5244 122.957 33.3476 122.957Z" fill="#F7BC28"/>
<path d="M10.2635 10.6368C11.9017 27.1578 12.9442 44.3125 14.6817 60.7204H47.4335C44.7528 31.9783 43.3628 21.6131 41.8238 3.16841C41.6501 1.17683 40.6448 -0.226322 39.5527 0.0226253L12.0134 6.26892C10.8468 6.54049 10.0525 8.53206 10.2635 10.6368Z" fill="#FBFAF7"/>
<path d="M18.5415 24.691C24.7344 25.0758 30.915 24.5779 37.0707 23.1973C38.0511 22.9709 38.0635 20.142 37.0707 20.3684C30.9274 21.7489 24.7344 22.2468 18.5415 21.862C17.5487 21.8167 17.5487 24.6457 18.5415 24.691Z" fill="#194429"/>
<path d="M19.7827 36.0068C25.9757 36.3914 32.1562 35.8935 38.3119 34.5131C39.2923 34.2867 39.3047 31.4578 38.3119 31.6841C32.1686 33.0645 25.9757 33.5624 19.7827 33.1778C18.7899 33.1325 18.7899 35.9615 19.7827 36.0068Z" fill="#194429"/>
<path d="M21.0234 47.3226C27.2164 47.7073 33.3969 47.2095 39.5526 45.8289C40.533 45.6027 40.5455 42.7737 39.5526 42.9999C33.4093 44.3805 27.2164 44.8784 21.0234 44.4936C20.0306 44.4485 20.0306 47.2774 21.0234 47.3226Z" fill="#194429"/>
</g>
<defs>
<clipPath id="clip0_1_510">
<rect width="66" height="145" fill="white"/>
</clipPath>
</defs>
</svg>
